<?xml version="1.0" encoding="UTF-8"?>
<svg id="Layer_1" data-name="Layer 1" xmlns="http://www.w3.org/2000/svg" viewBox="0 0 533.61 533.61">
  <path d="M266.81,0C126.03,0,10.71,109.03,.71,247.26,.24,253.71,0,260.23,0,266.8s.21,12.44,.64,18.57c9.53,138.69,125.06,248.24,266.17,248.24s256.63-109.55,266.16-248.24c.43-6.13,.64-12.33,.64-18.57,0-6.57-.24-13.09-.71-19.54C522.9,109.03,407.59,0,266.81,0Z"/>
  <g>
    <path d="M434.23,285.37c-5.79,83.74-50.54,156.75-116.24,201.06-16.44,3.81-33.58,5.83-51.18,5.83-118.27,0-215.26-91.06-224.7-206.89H180.36c8.52,39.91,43.99,69.84,86.45,69.84s77.92-29.93,86.44-69.84h80.98Z" fill="#fff"/>
    <path d="M434.17,247.26h-81.13c-8.89-39.42-44.13-68.86-86.23-68.86s-77.35,29.44-86.24,68.86H42.19c1.45-16.89,4.76-33.24,9.73-48.85,21.39-67.31,73.55-120.92,139.95-144.31,23.44-8.27,48.67-12.76,74.94-12.76,17.6,0,34.73,2.02,51.17,5.83,7.91,5.34,15.52,11.09,22.8,17.24,38.96,32.87,68.3,76.79,83.18,126.93,5.33,17.92,8.8,36.63,10.21,55.92Z" fill="#8e5ef0"/>
    <circle cx="266.8" cy="266.81" r="52.12" fill="#fff"/>
    <g>
      <path d="M193.09,71.75c0,70.36-57.04,127.4-127.41,127.4-4.65,0-9.24-.25-13.76-.74,21.39-67.31,73.55-120.92,139.95-144.31,.81,5.77,1.22,11.66,1.22,17.65Z" fill="#fa0db7"/>
      <path d="M423.96,191.34c-48.68-17.92-83.39-64.7-83.39-119.59,0-2.46,.07-4.91,.21-7.34,38.96,32.87,68.3,76.79,83.18,126.93Z" fill="#fa0db7"/>
    </g>
    <path d="M351.03,57.6c2.03,.82,4.05,1.66,6.05,2.54-2-.88-4.02-1.73-6.05-2.54Z" fill="#dfdfdf"/>
    <path d="M341.79,54.11c-.48,3.39-.81,6.83-1.01,10.3-7.28-6.15-14.89-11.9-22.8-17.24,1.01,.23,2.02,.48,3.03,.73,.96,.23,1.92,.48,2.87,.72,1.14,.3,2.28,.61,3.41,.92,.92,.26,1.82,.52,2.73,.78,1.98,.58,3.96,1.18,5.92,1.82,1.84,.59,3.67,1.21,5.5,1.85,.11,.04,.23,.08,.35,.12Z" fill="#7e52d8"/>
    <path d="M481.71,198.42c-4.51,.48-9.09,.73-13.73,.73-15.47,0-30.3-2.76-44.02-7.81-14.88-50.14-44.22-94.06-83.18-126.93,.2-3.47,.53-6.91,1.01-10.3,1.04,.37,2.07,.74,3.1,1.12,1,.37,1.99,.74,2.98,1.12,.04,.01,.07,.02,.1,.04,1.02,.4,2.04,.8,3.06,1.21,2.03,.82,4.05,1.66,6.05,2.54,1,.44,2,.88,2.99,1.33,.01,0,.03,.01,.05,.02,.98,.45,1.95,.9,2.92,1.36,.36,.17,.72,.34,1.07,.51,.62,.3,1.25,.6,1.87,.91,.98,.48,1.96,.96,2.93,1.46,.96,.49,1.93,.99,2.89,1.5,.06,.02,.12,.05,.18,.09,.9,.48,1.8,.96,2.69,1.45,.96,.52,1.91,1.05,2.85,1.58,.95,.53,1.89,1.07,2.82,1.62,1.67,.97,3.32,1.97,4.96,2.98,.23,.14,.45,.28,.67,.42,.88,.54,1.75,1.1,2.62,1.65,1.55,1,3.09,2.02,4.61,3.05,.63,.43,1.25,.86,1.88,1.29,.02,.01,.04,.03,.06,.04,.7,.49,1.4,.98,2.1,1.48,.55,.38,1.1,.78,1.64,1.18,.31,.22,.61,.44,.92,.66,0,.01,.01,.01,.01,.01,.72,.52,1.43,1.05,2.15,1.59,.86,.64,1.72,1.3,2.57,1.96,1.78,1.37,3.54,2.78,5.28,4.21,.57,.46,1.14,.93,1.7,1.41,.29,.23,.57,.47,.85,.71,.73,.62,1.46,1.24,2.18,1.87,.75,.65,1.49,1.3,2.23,1.96,.06,.06,.13,.11,.19,.17,1.61,1.44,3.19,2.9,4.76,4.38,.79,.74,1.56,1.48,2.33,2.24,.78,.75,1.54,1.5,2.3,2.27,.77,.76,1.52,1.53,2.27,2.3,.75,.77,1.5,1.55,2.23,2.34,.5,.52,.99,1.04,1.47,1.56,.33,.36,.66,.72,.98,1.07,1.14,1.25,2.27,2.51,3.39,3.79,.1,.11,.2,.23,.29,.34,.67,.76,1.33,1.53,1.98,2.31,.67,.79,1.33,1.58,1.98,2.37,.83,1,1.64,2.01,2.45,3.03,.72,.91,1.44,1.82,2.15,2.74,.49,.64,.98,1.28,1.47,1.93,.23,.3,.46,.61,.69,.92,.58,.77,1.15,1.55,1.72,2.34,.63,.87,1.26,1.75,1.88,2.63,1.25,1.77,2.47,3.56,3.66,5.36,.48,.72,.95,1.44,1.42,2.17,.48,.75,.96,1.49,1.42,2.24,.31,.49,.62,.98,.92,1.47,.39,.62,.77,1.24,1.14,1.87,.38,.62,.76,1.25,1.13,1.88,.41,.7,.83,1.4,1.23,2.11,.41,.7,.81,1.41,1.21,2.12,.45,.79,.89,1.59,1.33,2.4,1.59,2.91,3.12,5.85,4.58,8.83,.33,.66,.65,1.32,.96,1.99,.32,.66,.63,1.32,.94,1.99,.4,.87,.8,1.74,1.2,2.62,.4,.87,.78,1.75,1.17,2.63,.35,.8,.7,1.61,1.04,2.42,.19,.46,.39,.93,.57,1.39,.28,.66,.55,1.33,.82,1.99,.03,.08,.07,.17,.1,.25,.41,1.02,.81,2.04,1.2,3.06,.4,1.03,.78,2.05,1.16,3.09,.34,.91,.66,1.82,.98,2.73,.32,.91,.64,1.82,.95,2.74,.21,.6,.41,1.2,.6,1.8,.23,.7,.46,1.4,.68,2.1Z" fill="#cc0a98"/>
    <path d="M491.43,247.26h-57.26c-1.41-19.29-4.88-38-10.21-55.92,13.72,5.05,28.55,7.81,44.02,7.81,4.64,0,9.22-.25,13.73-.73,0,.01,.01,.02,.01,.03,.31,.97,.61,1.93,.9,2.9,.3,.99,.59,1.97,.87,2.96,.26,.9,.52,1.81,.77,2.72,.21,.77,.42,1.54,.62,2.31,.15,.57,.3,1.15,.44,1.72,.4,1.56,.78,3.12,1.14,4.69,.16,.69,.32,1.39,.47,2.08,.25,1.13,.49,2.25,.72,3.38s.45,2.25,.67,3.39c.1,.51,.19,1.01,.29,1.52,.09,.48,.17,.96,.25,1.44,.09,.5,.18,1.01,.26,1.52,.15,.83,.28,1.67,.41,2.51,.16,.99,.31,1.97,.45,2.96,.01,.12,.03,.23,.05,.35,.13,.97,.26,1.95,.39,2.92,.11,.86,.21,1.71,.31,2.57,.06,.47,.12,.95,.16,1.42,.01,.05,.02,.1,.02,.15,.05,.43,.1,.86,.14,1.29,.06,.53,.11,1.06,.16,1.59,.08,.81,.15,1.61,.22,2.42Z" fill="#7e52d8"/>
    <path d="M491.51,285.37c-8.04,98.59-79.5,179.24-173.52,201.06,65.7-44.31,110.45-117.32,116.24-201.06h57.28Z" fill="#dedede"/>
    <path d="M321.95,167.54h-15.69l-17.64-50.11c-5.31,11.33-18.28,38.97-23.43,49.97-5.04-10.76-17.52-37.38-22.7-48.43l-17.11,48.57h-15.68c5.17-14.69,26.11-74.1,30.84-87.57,5.51,11.74,19,40.53,24.65,52.58,5.79-12.35,19.76-42.13,25.37-54.13,4.62,13.11,26.34,74.77,31.39,89.12Z" fill="#fff"/>
  </g>
</svg>