<?xml version="1.0" encoding="UTF-8"?>
<svg id="Layer_1" data-name="Layer 1" xmlns="http://www.w3.org/2000/svg" viewBox="0 0 533.61 533.61">
  <path d="M532.9,247.26C522.9,109.03,407.59,0,266.81,0S10.71,109.03,.71,247.26c-.47,6.45-.71,12.97-.71,19.54s.21,12.44,.64,18.57c9.53,138.69,125.06,248.24,266.17,248.24s256.63-109.55,266.16-248.24c.43-6.13,.64-12.33,.64-18.57,0-6.57-.24-13.09-.71-19.54Z"/>
  <g>
    <path d="M434.23,285.37c-5.79,83.74-50.54,156.75-116.24,201.06-16.44,3.81-33.58,5.83-51.18,5.83-118.27,0-215.26-91.06-224.7-206.89H180.36c8.52,39.91,43.99,69.84,86.45,69.84s77.92-29.93,86.44-69.84h80.98Z" fill="#fff"/>
    <path d="M434.17,247.26h-81.13c-8.89-39.42-44.13-68.86-86.23-68.86s-77.35,29.44-86.24,68.86H42.19c9.9-115.37,106.68-205.92,224.62-205.92,17.6,0,34.73,2.02,51.17,5.83,65.45,44.14,110.11,116.76,116.19,200.09Z" fill="#ff1b1c"/>
    <circle cx="266.81" cy="266.81" r="52.12" fill="#fff"/>
    <path d="M491.43,247.26h-57.26c-6.08-83.33-50.74-155.95-116.19-200.09,93.72,21.75,165.03,101.94,173.45,200.09Z" fill="#df1717"/>
    <path d="M491.51,285.37c-8.04,98.59-79.5,179.24-173.52,201.06,65.7-44.31,110.45-117.32,116.24-201.06h57.28Z" fill="#dedede"/>
  </g>
</svg>