<?xml version="1.0" encoding="UTF-8"?>
<svg id="Layer_1" data-name="Layer 1" xmlns="http://www.w3.org/2000/svg" viewBox="0 0 533.61 533.61">
  <path d="M266.81,0C126.03,0,10.71,109.03,.71,247.26c-.47,6.45-.71,12.97-.71,19.54s.21,12.44,.64,18.57c9.53,138.69,125.06,248.24,266.17,248.24s256.63-109.55,266.16-248.24c.43-6.13,.64-12.33,.64-18.57,0-6.57-.24-13.09-.71-19.54C522.9,109.03,407.59,0,266.81,0Z"/>
  <g>
    <path d="M434.23,285.37c-5.79,83.74-50.54,156.75-116.24,201.06-16.44,3.81-33.58,5.83-51.18,5.83-118.27,0-215.26-91.06-224.7-206.89H180.36c8.52,39.91,43.99,69.84,86.45,69.84s77.92-29.93,86.44-69.84h80.98Z" fill="#fff"/>
    <path d="M434.17,247.26h-81.13c-8.89-39.42-44.13-68.86-86.23-68.86s-77.35,29.44-86.24,68.86H42.19c3.31-38.55,16.32-74.34,36.58-104.89,1.15,1.62,2.45,3.15,3.89,4.59l36.85,36.85c6.86,6.86,15.98,10.64,25.68,10.64s18.83-3.78,25.69-10.64l10.17-10.17c14.17-14.16,14.17-37.21,0-51.37l-36.85-36.85c-1.63-1.63-3.38-3.08-5.24-4.35,36.33-25.06,80.38-39.73,127.85-39.73,17.6,0,34.73,2.02,51.17,5.83,22.92,15.46,43.3,34.42,60.36,56.11l-18.99,18.99c-14.17,14.16-14.17,37.21,0,51.37l10.17,10.17c6.86,6.86,15.98,10.64,25.68,10.64s18.83-3.78,25.69-10.64l.54-.54c6.76,20.35,11.12,41.79,12.74,63.99Z" fill="#80b9f0"/>
    <path d="M318.93,266.81c0,28.78-23.34,52.12-52.13,52.12s-52.12-23.34-52.12-52.12,23.33-52.13,52.12-52.13,52.13,23.34,52.13,52.13Z" fill="#fff"/>
    <g>
      <g>
        <path d="M418.1,173.88l-3.57,3.57c-10.67,10.67-27.98,10.67-38.65,0l-10.17-10.17c-10.67-10.67-10.67-27.98,0-38.65l18.12-18.12c14.15,19.3,25.74,40.59,34.27,63.37Z" fill="#ef3d27"/>
        <path d="M452.7,139.18c-.42,.48-.86,.96-1.32,1.42l-33.28,33.28c-8.53-22.78-20.12-44.07-34.27-63.37l18.73-18.73c.97-.97,2-1.85,3.07-2.64,10.69-7.94,25.87-7.06,35.57,2.64l10.18,10.17c10.21,10.22,10.65,26.5,1.32,37.23Z" fill="#b00001"/>
      </g>
      <path d="M174.69,167.28l-10.17,10.17c-10.68,10.67-27.98,10.67-38.65,0l-36.85-36.85c-1.9-1.9-3.46-4.01-4.68-6.25h0c-5.65-10.37-4.09-23.62,4.68-32.4l10.17-10.17c8.62-8.61,21.56-10.27,31.83-4.98,2.46,1.26,4.76,2.92,6.82,4.98l36.85,36.85c10.67,10.67,10.67,27.98,0,38.65Z" fill="#ef3d27"/>
    </g>
    <path d="M491.51,285.37c-8.04,98.59-79.5,179.24-173.52,201.06,65.7-44.31,110.45-117.32,116.24-201.06h57.28Z" fill="#dedede"/>
    <path d="M398.2,83.56c-.69,.59-1.36,1.21-2.01,1.86l-17.85,17.86c-17.06-21.69-37.44-40.65-60.36-56.11,29.35,6.81,56.51,19.35,80.22,36.39Z" fill="#6e9ccb"/>
    <path d="M491.43,247.26h-57.26c-1.62-22.2-5.98-43.64-12.74-63.99l36.31-36.31s.03-.03,.05-.05c18.58,29.54,30.5,63.69,33.64,100.35Z" fill="#6e9ccb"/>
  </g>
</svg>