<?xml version="1.0" encoding="UTF-8"?>
<svg id="Layer_1" data-name="Layer 1" xmlns="http://www.w3.org/2000/svg" viewBox="0 0 533.61 533.61">
  <path d="M266.81,0C126.03,0,10.71,109.03,.71,247.26c-.47,6.45-.71,12.97-.71,19.54s.21,12.44,.64,18.57c9.53,138.69,125.06,248.24,266.17,248.24s256.63-109.55,266.16-248.24c.43-6.13,.64-12.33,.64-18.57,0-6.57-.24-13.09-.71-19.54C522.9,109.03,407.59,0,266.81,0Z"/>
  <g>
    <path d="M434.23,285.37c-5.79,83.74-50.54,156.75-116.24,201.06-16.44,3.81-33.58,5.83-51.18,5.83-118.27,0-215.26-91.06-224.7-206.89H180.36c8.52,39.91,43.99,69.84,86.45,69.84s77.92-29.93,86.44-69.84h80.98Z" fill="#fff"/>
    <path d="M434.17,247.26h-81.13c-8.9-39.42-44.14-68.86-86.23-68.86s-77.35,29.44-86.25,68.86H42.18c4.68-54.43,28.69-103.34,65.13-139.81,40.81-40.84,97.2-66.11,159.5-66.11,17.59,0,34.73,2.02,51.17,5.83,48.86,32.95,86.13,81.77,104.42,139.08,6.21,19.46,10.23,39.89,11.77,61.01Z" fill="#272727"/>
    <circle cx="266.81" cy="266.81" r="52.12" fill="#fff"/>
    <path d="M422.4,186.25v61.01h-50.52v-31.22c0-51.4-41.66-93.06-93.07-93.06h-27.92c-51.39,0-93.05,41.66-93.05,93.06v31.22h-50.53V107.45c40.81-40.84,97.2-66.11,159.5-66.11,17.59,0,34.73,2.02,51.17,5.83,48.86,32.95,86.13,81.77,104.42,139.08Z" fill="#ffbe06"/>
    <path d="M411.32,93.74c1.9,1.59,3.78,3.21,5.62,4.86-1.85-1.66-3.72-3.28-5.62-4.86Zm-11.71-9.15c-2.87-2.11-5.8-4.14-8.77-6.1,2.97,1.97,5.9,4,8.77,6.1Zm-12.32-8.39c-2.1-1.34-4.22-2.63-6.37-3.89,2.15,1.27,4.27,2.56,6.37,3.89Zm-16.18-9.33c-2.21-1.17-4.45-2.29-6.71-3.37,2.26,1.09,4.49,2.21,6.71,3.37Zm-10.11-4.97c-4.55-2.1-9.19-4.05-13.9-5.84,4.71,1.8,9.35,3.75,13.9,5.84Z" fill="#dfdfdf"/>
    <path d="M422.4,103.64v82.61c-18.29-57.31-55.56-106.13-104.42-139.08,1.25,.29,2.49,.59,3.73,.9,1.24,.31,2.47,.63,3.7,.96,1.16,.31,2.31,.63,3.45,.95,.07,.02,.15,.05,.23,.07,1.2,.34,2.38,.7,3.57,1.05,.04,.02,.07,.03,.11,.04,1.21,.37,2.41,.75,3.61,1.14,1.2,.39,2.4,.79,3.6,1.2,2.39,.82,4.77,1.68,7.12,2.58,4.71,1.8,9.35,3.75,13.9,5.84,1.04,.48,2.08,.97,3.11,1.46,.1,.04,.2,.09,.29,.14,2.26,1.09,4.49,2.21,6.71,3.37,1.1,.58,2.2,1.16,3.3,1.76,2.19,1.18,4.36,2.41,6.51,3.68,2.15,1.27,4.27,2.56,6.37,3.89,1.02,.65,2.04,1.3,3.05,1.96,.16,.11,.33,.22,.5,.33,2.97,1.97,5.9,4,8.77,6.1,.07,.04,.13,.09,.2,.14,.91,.67,1.82,1.34,2.72,2.02,.26,.2,.52,.39,.78,.59,.75,.58,1.49,1.15,2.23,1.73,.98,.76,1.95,1.54,2.91,2.31h.01c.96,.79,1.92,1.57,2.86,2.36,1.9,1.59,3.78,3.21,5.62,4.86,1.84,1.64,3.64,3.31,5.42,5,.01,.02,.03,.03,.04,.04Z" fill="#d9a107"/>
    <path d="M491.43,247.26h-57.26c-1.54-21.12-5.56-41.55-11.77-61.01V103.64l.03,.03c.05,.05,.1,.1,.15,.14,1.12,1.08,2.23,2.16,3.33,3.25,1.16,1.14,2.3,2.3,3.42,3.47,.05,.05,.11,.11,.16,.17,.95,.99,1.89,1.99,2.83,3,.26,.28,.51,.56,.76,.83,1.07,1.17,2.13,2.35,3.18,3.55,1.1,1.25,2.19,2.51,3.27,3.79,.24,.29,.48,.58,.72,.87,.44,.52,.87,1.05,1.29,1.57,.39,.48,.78,.96,1.16,1.44,.53,.65,1.05,1.3,1.56,1.96,.52,.66,1.03,1.32,1.54,1.98,.51,.66,1.01,1.33,1.51,2,.78,1.03,1.55,2.08,2.31,3.13,.76,1.05,1.51,2.1,2.25,3.17,.43,.62,.86,1.23,1.28,1.86,.48,.7,.95,1.39,1.42,2.09,.46,.69,.92,1.39,1.37,2.09,1.91,2.93,3.74,5.9,5.51,8.91,.35,.6,.7,1.21,1.05,1.82,.42,.73,.83,1.46,1.24,2.19,.41,.73,.82,1.47,1.22,2.21,.41,.74,.8,1.48,1.19,2.22,.4,.75,.79,1.49,1.17,2.24,.41,.8,.83,1.61,1.23,2.41,.31,.62,.61,1.23,.91,1.85,.3,.6,.59,1.2,.88,1.81,.28,.58,.56,1.17,.83,1.76,.2,.43,.4,.85,.59,1.27,.35,.76,.7,1.53,1.04,2.3,1.29,2.89,2.52,5.81,3.69,8.76,.25,.62,.49,1.25,.73,1.87,.15,.37,.29,.75,.43,1.12,.3,.79,.6,1.59,.89,2.39,.57,1.54,1.11,3.08,1.64,4.62,.53,1.55,1.05,3.1,1.54,4.67,.13,.42,.27,.84,.4,1.26,.16,.52,.32,1.05,.48,1.58,.15,.48,.29,.95,.43,1.43,.18,.6,.35,1.19,.52,1.79,.26,.89,.51,1.79,.75,2.69,.17,.6,.33,1.21,.49,1.81,.19,.71,.38,1.42,.55,2.14,.02,.06,.04,.11,.05,.17,.2,.78,.39,1.56,.58,2.34,.17,.7,.33,1.39,.49,2.09,.15,.65,.3,1.3,.44,1.95,.1,.43,.19,.86,.29,1.29,.16,.77,.33,1.54,.48,2.32,.12,.56,.23,1.12,.34,1.68,.02,.11,.04,.23,.06,.34,.1,.51,.2,1.03,.3,1.55,.1,.51,.2,1.02,.29,1.54,.1,.53,.19,1.07,.28,1.6,.23,1.28,.44,2.57,.64,3.85,.11,.76,.23,1.53,.34,2.29,.13,.87,.25,1.74,.36,2.6,.11,.84,.22,1.68,.32,2.51,.05,.37,.09,.75,.13,1.12,.08,.69,.17,1.39,.24,2.08,.01,.06,.01,.12,.02,.18,.16,1.53,.31,3.07,.44,4.61Z" fill="#212121"/>
    <path d="M491.51,285.37c-8.04,98.59-79.5,179.24-173.52,201.06,65.7-44.31,110.45-117.32,116.24-201.06h57.28Z" fill="#dedede"/>
  </g>
</svg>